<svg height="452pt" viewBox="0 -2 452.574 452" width="452pt" xmlns="http://www.w3.org/2000/svg"><path d="m427.992188 264.289062h-85.960938c-8.320312 0-15.058594-6.738281-15.058594-15.058593v-49.0625c0-16.800781-13.621094-30.417969-30.402344-30.417969-8.398437 0-16 3.398438-21.5 8.898438-5.5 5.519531-8.898437 13.121093-8.898437 21.519531v37.960937c0 15.640625-9.960937 29.558594-24.78125 34.601563l-29.519531 10.058593c.121094.898438.179687 1.820313.179687 2.761719v137.558594c0 .417969-.019531.820313-.019531 1.21875l6.378906 1.621094c30.921875 7.859375 62.683594 11.898437 94.582032 12.101562.261718 0 .5.019531.761718.019531h74.179688c11.917968 0 21.578125-9.660156 21.578125-21.582031v-.277343c0-11.921876-9.660157-21.582032-21.578125-21.582032h14.757812c11.921875 0 21.582032-9.660156 21.582032-21.578125v-.28125c0-11.921875-9.660157-21.582031-21.582032-21.582031h14.761719c11.917969 0 21.578125-9.660156 21.578125-21.578125v-.28125c0-11.917969-9.660156-21.578125-21.578125-21.578125h-24.5625l.019531-.019531h35.082032c11.917968 0 21.578124-9.660157 21.578124-21.582031v-.28125c0-11.917969-9.660156-21.578126-21.578124-21.578126zm0 0" fill="#fce8cb"/><path d="m427.992188 261.289062h-85.957032c-6.648437 0-12.058594-5.410156-12.058594-12.058593v-49.0625c0-18.425781-14.984374-33.417969-33.402343-33.417969-8.925781 0-17.3125 3.472656-23.625 9.78125-6.304688 6.328125-9.773438 14.722656-9.773438 23.636719v37.960937c0 14.371094-9.140625 27.132813-22.746093 31.761719l-29.523438 10.058594c-1.359375.460937-2.199219 1.820312-2.007812 3.238281.105468.753906.152343 1.550781.152343 2.363281v137.558594l-.019531 1.21875c0 1.371094.933594 2.570313 2.261719 2.90625l6.382812 1.621094c31.035157 7.890625 63.097657 11.992187 95.316407 12.195312l74.941406.019531c13.550781 0 24.578125-11.03125 24.578125-24.582031v-.277343c0-7.433594-3.3125-14.105469-8.542969-18.617188 12.964844-.664062 23.304688-11.421875 23.304688-24.542969v-.28125c0-7.433593-3.316407-14.101562-8.542969-18.613281 12.960937-.667969 23.300781-11.421875 23.300781-24.546875v-.28125c0-7.699219-3.558594-14.585937-9.117188-19.09375 11.203126-2.289063 19.65625-12.21875 19.65625-24.085937v-.28125c.003907-13.550782-11.023437-24.578126-24.578124-24.578126zm18.582031 24.859376c0 10.246093-8.335938 18.582031-18.582031 18.582031h-35.078126c-.792968 0-1.578124.335937-2.140624.898437-.859376.855469-1.117188 2.144532-.648438 3.269532.464844 1.121093 1.558594 1.851562 2.769531 1.851562h24.558594c10.246094 0 18.582031 8.335938 18.582031 18.578125v.28125c0 10.246094-8.335937 18.582031-18.582031 18.582031h-14.757813c-1.65625 0-3 1.34375-3 3s1.34375 3 3 3c10.242188 0 18.578126 8.335938 18.578126 18.578125v.28125c0 10.246094-8.335938 18.582031-18.578126 18.582031h-14.761718c-1.65625 0-3 1.34375-3 3 0 1.652344 1.34375 3 3 3 10.246094 0 18.582031 8.335938 18.582031 18.578126v.28125c0 10.242187-8.335937 18.578124-18.582031 18.578124h-74.179688l-.738281-.019531c-31.71875-.199219-63.296875-4.238281-93.863281-12.007812l-4.101563-1.042969v-136.449219c0-.226562-.003906-.449219-.007812-.671875l27.316406-9.308594c16.039063-5.457031 26.8125-20.5 26.8125-37.441406v-37.960937c0-7.316407 2.851563-14.207031 8.023437-19.398438 5.171876-5.171875 12.050782-8.019531 19.375-8.019531 15.113282 0 27.402344 12.300781 27.402344 27.417969v49.0625c0 9.957031 8.101563 18.058593 18.058594 18.058593h85.957031c10.246094 0 18.582031 8.335938 18.582031 18.578126v.28125zm0 0" fill="#3a312a"/><path d="m3 262.84375h134.242188v182.960938h-134.242188zm0 0" fill="#f16c7a"/><path d="m137.246094 259.84375h-24.171875c-1.65625 0-3 1.34375-3 3s1.34375 3 3 3h21.171875v176.960938h-128.246094v-176.960938h77.5c1.65625 0 3-1.34375 3-3s-1.34375-3-3-3h-80.5c-1.65625 0-3 1.34375-3 3v182.960938c0 1.65625 1.34375 3 3 3h134.242188c1.65625 0 3-1.34375 3-3v-182.960938c.003906-1.660156-1.339844-3-2.996094-3zm0 0" fill="#3a312a"/><path d="m189.359375 262.84375h-52.113281v182.960938h52.113281c12.539063 0 22.703125-10.164063 22.703125-22.703126v-137.554687c0-12.539063-10.164062-22.703125-22.703125-22.703125zm0 0" fill="#8ac6dd"/><path d="m189.359375 259.84375h-52.113281c-1.65625 0-3 1.34375-3 3v182.960938c0 1.65625 1.34375 3 3 3h52.113281c14.175781 0 25.707031-11.53125 25.707031-25.703126v-137.554687c-.003906-14.175781-11.535156-25.703125-25.707031-25.703125zm19.703125 163.257812c0 10.867188-8.839844 19.703126-19.703125 19.703126h-49.113281v-176.960938h49.113281c10.867187 0 19.707031 8.839844 19.707031 19.707031v137.550781zm0 0" fill="#3a312a"/><path d="m174.652344 390.734375c-9.457032 0-17.125 7.667969-17.125 17.125 0 9.460937 7.667968 17.128906 17.125 17.128906 9.460937 0 17.128906-7.667969 17.128906-17.128906 0-9.457031-7.667969-17.125-17.128906-17.125zm0 0" fill="#87796f"/><path d="m174.652344 387.734375c-11.097656 0-20.125 9.027344-20.125 20.125 0 11.101563 9.027344 20.128906 20.125 20.128906 11.101562 0 20.128906-9.03125 20.128906-20.128906 0-11.09375-9.03125-20.125-20.128906-20.125zm0 34.253906c-7.789063 0-14.125-6.339843-14.125-14.128906 0-7.785156 6.335937-14.125 14.125-14.125 7.792968 0 14.128906 6.335937 14.128906 14.125 0 7.792969-6.339844 14.128906-14.128906 14.128906zm0 0" fill="#3a312a"/><path d="m189.367188 265.84375h-20.542969c10.863281 0 19.703125 8.839844 19.703125 19.699219v107.761719c3.859375 3.660156 6.257812 8.839843 6.257812 14.558593s-2.398437 10.898438-6.257812 14.558594v.679687c0 10.863282-8.839844 19.703126-19.703125 19.703126h20.542969c10.859374 0 19.699218-8.839844 19.699218-19.703126v-137.558593c0-10.859375-8.839844-19.699219-19.699218-19.699219zm0 0" fill="#68a8bc"/><path d="m367.707031 167.003906c-5.542969 0-10.941406-.5625-16.179687-1.601562v31.289062c.03125 0 .0625-.003906.09375-.003906v30.621094c-.03125 0-.0625-.003906-.09375-.003906v36.980468h30.257812v-98.480468c-4.578125.777343-9.277344 1.199218-14.078125 1.199218zm0 0" fill="#87796f"/><path d="m383.722656 163.511719c-.675781-.570313-1.566406-.8125-2.441406-.664063-9.703125 1.652344-19.535156 1.527344-29.171875-.382812-.878906-.171875-1.792969.050781-2.488281.625-.691406.570312-1.09375 1.417968-1.09375 2.316406v31.289062c0 1.65625 1.4375 2.996094 3.09375 2.996094s2.953125-1.34375 2.953125-3c0-.175781-.015625-.351562-.046875-.523437v-27.1875c8.058594 1.253906 16.164062 1.351562 24.261718.304687v91.996094h-24.261718v-33.328125c.039062-.179687.0625-.363281.070312-.550781.046875-1.621094-1.21875-2.988282-2.832031-3.089844-1.765625-.101562-3.238281 1.269531-3.238281 2.992188v36.976562c0 1.65625 1.34375 3 3 3h30.261718c1.65625 0 3-1.34375 3-3v-98.476562c-.003906-.886719-.394531-1.722657-1.066406-2.292969zm0 0" fill="#3a312a"/><path d="m449.570312 85.148438c0 45.210937-36.648437 81.863281-81.859374 81.863281-45.210938 0-81.863282-36.652344-81.863282-81.863281 0-45.210938 36.652344-81.863282 81.863282-81.863282 45.210937 0 81.859374 36.652344 81.859374 81.863282zm0 0" fill="#d7e057"/><path d="m367.710938.285156c-46.792969 0-84.863282 38.070313-84.863282 84.863282 0 46.792968 38.066406 84.863281 84.863282 84.863281 46.792968 0 84.863281-38.070313 84.863281-84.863281 0-46.792969-38.070313-84.863282-84.863281-84.863282zm0 163.726563c-43.484376 0-78.863282-35.375-78.863282-78.863281 0-43.484376 35.375-78.863282 78.863282-78.863282 43.484374 0 78.863281 35.378906 78.863281 78.863282 0 43.488281-35.378907 78.863281-78.863281 78.863281zm0 0" fill="#3a312a"/><path d="m420.484375 49.3125c-3.699219-4.101562-10.023437-4.429688-14.125-.726562l-56.25 50.742187-19.585937-27.65625c-3.195313-4.507813-9.433594-5.574219-13.9375-2.382813-4.511719 3.191407-5.574219 9.433594-2.382813 13.941407l26.089844 36.835937c1.652343 2.332032 4.222656 3.847656 7.058593 4.160156.371094.039063.738282.058594 1.101563.058594 2.460937 0 4.851563-.90625 6.699219-2.574218l64.605468-58.28125c4.097657-3.695313 4.425782-10.019532.726563-14.117188zm0 0" fill="#87796f"/><path d="m422.710938 47.300781c-2.328126-2.578125-5.515626-4.097656-8.984376-4.277343-3.46875-.171876-6.796874 1.007812-9.375 3.332031l-53.742187 48.480469-17.632813-24.898438c-2.007812-2.835938-5-4.714844-8.421874-5.300781-3.417969-.585938-6.867188.195312-9.703126 2.207031-2.832031 2.007812-4.714843 4.996094-5.300781 8.417969-.585937 3.425781.203125 6.871093 2.210938 9.707031l26.085937 36.835938c2.144532 3.027343 5.488282 5 9.175782 5.410156.480468.050781.957031.074218 1.433593.074218 3.222657 0 6.316407-1.1875 8.707031-3.347656l64.605469-58.28125c5.316407-4.800781 5.742188-13.039062.941407-18.359375zm-4.964844 13.90625-64.605469 58.28125c-1.476563 1.332031-3.433594 1.992188-5.457031 1.757813-1.988282-.21875-3.789063-1.28125-4.945313-2.910156l-26.085937-36.839844c-2.230469-3.148438-1.480469-7.527344 1.667968-9.757813 1.195313-.847656 2.589844-1.289062 4.03125-1.289062.390626 0 .792969.035156 1.191407.101562 1.84375.3125 3.453125 1.328125 4.535156 2.855469l19.585937 27.65625c.496094.699219 1.269532 1.152344 2.121094 1.246094.847656.09375 1.703125-.179688 2.339844-.753906l56.246094-50.742188c1.390625-1.253906 3.1875-1.878906 5.050781-1.792969 1.867187.097657 3.585937.914063 4.835937 2.300781 2.582032 2.863282 2.355469 7.300782-.511718 9.886719zm0 0" fill="#3a312a"/><path d="m367.707031 6.28125c-3.480469 0-6.902343.222656-10.261719.683594 23.699219 3.078125 44.121094 16.738281 56.359376 36.058594 3.421874.199218 6.601562 1.71875 8.902343 4.28125 4.320313 4.796874 4.417969 11.957031.480469 16.839843 1.859375 6.679688 2.839844 13.71875 2.839844 21 0 40-29.941406 73.136719-68.582032 78.179688 3.359376.457031 6.78125.679687 10.261719.679687 43.5 0 78.859375-35.382812 78.859375-78.859375 0-43.480469-35.359375-78.863281-78.859375-78.863281zm0 0" fill="#b9bc39"/><path d="m182.535156 132.199219c-1.949218 23.128906-26.050781 26.78125-26.050781 26.78125 20.695313.972656 25.851563 28.117187 25.851563 28.117187.441406-19.351562 26.640624-28.402344 26.640624-28.402344-19.625-1.175781-26.441406-26.496093-26.441406-26.496093zm0 0" fill="#d7e057"/><path d="m209.15625 155.699219c-17.207031-1.03125-23.664062-24.046875-23.722656-24.28125-.382813-1.40625-1.695313-2.324219-3.167969-2.203125-1.453125.128906-2.597656 1.28125-2.71875 2.730468-1.71875 20.433594-22.625 23.925782-23.507813 24.0625-1.527343.234376-2.628906 1.582032-2.546874 3.125.078124 1.539063 1.3125 2.769532 2.855468 2.839844 18.054688.851563 22.996094 25.4375 23.042969 25.6875.273437 1.421875 1.519531 2.433594 2.945313 2.433594.085937 0 .167968-.003906.253906-.007812 1.527344-.128907 2.710937-1.386719 2.75-2.921876.386718-17.015624 24.378906-25.554687 24.625-25.636718 1.351562-.46875 2.183594-1.828125 1.988281-3.246094-.203125-1.417969-1.367187-2.5-2.796875-2.582031zm-27.132812 20.691406c-2.710938-6.261719-7.414063-13.816406-15.171876-17.753906 5.863282-2.808594 12.816407-7.824219 16.402344-16.542969 3.101563 6.140625 8.398438 13.757812 16.667969 17.445312-6.011719 3.277344-13.84375 8.808594-17.898437 16.851563zm0 0" fill="#3a312a"/><path d="m139.136719 166.160156c-1.378907 16.359375-18.425781 18.941406-18.425781 18.941406 14.636718.6875 18.28125 19.890626 18.28125 19.890626.3125-13.6875 18.847656-20.089844 18.847656-20.089844-13.882813-.832032-18.703125-18.742188-18.703125-18.742188zm0 0" fill="#d7e057"/><path d="m158.019531 181.90625c-11.535156-.6875-15.945312-16.371094-15.988281-16.527344-.378906-1.40625-1.726562-2.328125-3.164062-2.207031-1.453126.132813-2.597657 1.289063-2.722657 2.738281-1.15625 13.738282-15.289062 16.128906-15.878906 16.222656-1.527344.230469-2.628906 1.582032-2.546875 3.121094.078125 1.542969 1.3125 2.769532 2.855469 2.84375 12.070312.566406 15.449219 17.289063 15.476562 17.453125.273438 1.425781 1.519531 2.441407 2.945313 2.441407.082031 0 .167968-.003907.25-.011719 1.53125-.125 2.71875-1.386719 2.753906-2.921875.257812-11.414063 16.660156-17.265625 16.824219-17.320313 1.351562-.46875 2.1875-1.828125 1.992187-3.246093-.199218-1.417969-1.367187-2.5-2.796875-2.585938zm-19.167969 13.589844c-1.847656-3.773438-4.679687-7.894532-8.894531-10.558594 3.707031-2.082031 7.394531-5.261719 9.738281-9.832031 2.117188 3.746093 5.3125 7.90625 9.882813 10.449219-3.699219 2.199218-7.976563 5.476562-10.726563 9.941406zm0 0" fill="#3a312a"/><path d="m139.136719 112.847656c-1.378907 16.355469-18.425781 18.941406-18.425781 18.941406 14.636718.6875 18.28125 19.886719 18.28125 19.886719.3125-13.6875 18.847656-20.089843 18.847656-20.089843-13.882813-.832032-18.703125-18.738282-18.703125-18.738282zm0 0" fill="#d7e057"/><path d="m158.019531 128.59375c-11.535156-.691406-15.945312-16.375-15.988281-16.53125-.378906-1.40625-1.726562-2.324219-3.164062-2.207031-1.453126.132812-2.597657 1.289062-2.722657 2.738281-1.15625 13.742188-15.289062 16.132812-15.878906 16.226562-1.527344.230469-2.628906 1.582032-2.546875 3.121094.078125 1.542969 1.3125 2.769532 2.855469 2.839844 12.070312.570312 15.449219 17.292969 15.476562 17.457031.273438 1.425781 1.519531 2.4375 2.945313 2.4375.082031 0 .167968-.003906.25-.007812 1.53125-.128907 2.71875-1.390625 2.753906-2.921875.257812-11.417969 16.660156-17.265625 16.820312-17.324219 1.355469-.464844 2.191407-1.824219 1.996094-3.242187-.199218-1.417969-1.367187-2.5-2.796875-2.585938zm-19.167969 13.585938c-1.847656-3.773438-4.679687-7.894532-8.894531-10.558594 3.707031-2.082032 7.394531-5.261719 9.738281-9.835938 2.117188 3.75 5.3125 7.910156 9.882813 10.453125-3.695313 2.195313-7.976563 5.476563-10.726563 9.941407zm0 0" fill="#3a312a"/></svg>